<svg viewBox="0 0 512 512" xmlns="http://www.w3.org/2000/svg"><defs><clipPath id="c"><circle cx="256" cy="256" r="256"/></clipPath></defs><g clip-path="url(#c)"><rect width="512" height="256" fill="#0052b4"/><rect y="256" width="512" height="256" fill="#d80027"/><polygon points="0,0 268,256 0,512" fill="#f0f0f0"/><circle cx="96" cy="256" r="34" fill="#ffda44"/><line x1="142.0" y1="256.0" x2="158.0" y2="256.0" stroke="#ffda44" stroke-width="9" stroke-linecap="round"/><line x1="128.5" y1="288.5" x2="139.8" y2="299.8" stroke="#ffda44" stroke-width="9" stroke-linecap="round"/><line x1="96.0" y1="302.0" x2="96.0" y2="318.0" stroke="#ffda44" stroke-width="9" stroke-linecap="round"/><line x1="63.5" y1="288.5" x2="52.2" y2="299.8" stroke="#ffda44" stroke-width="9" stroke-linecap="round"/><line x1="50.0" y1="256.0" x2="34.0" y2="256.0" stroke="#ffda44" stroke-width="9" stroke-linecap="round"/><line x1="63.5" y1="223.5" x2="52.2" y2="212.2" stroke="#ffda44" stroke-width="9" stroke-linecap="round"/><line x1="96.0" y1="210.0" x2="96.0" y2="194.0" stroke="#ffda44" stroke-width="9" stroke-linecap="round"/><line x1="128.5" y1="223.5" x2="139.8" y2="212.2" stroke="#ffda44" stroke-width="9" stroke-linecap="round"/><polygon points="78.0,84.0 82.9,97.2 97.0,97.8 86.0,106.6 89.8,120.2 78.0,112.4 66.2,120.2 70.0,106.6 59.0,97.8 73.1,97.2" fill="#ffda44"/><polygon points="78.0,388.0 82.9,401.2 97.0,401.8 86.0,410.6 89.8,424.2 78.0,416.4 66.2,424.2 70.0,410.6 59.0,401.8 73.1,401.2" fill="#ffda44"/><polygon points="214.0,236.0 218.9,249.2 233.0,249.8 222.0,258.6 225.8,272.2 214.0,264.4 202.2,272.2 206.0,258.6 195.0,249.8 209.1,249.2" fill="#ffda44"/></g></svg>